999
DXF generated by OpenJsCad
  0
SECTION
  2
HEADER
  0
ENDSEC
  0
SECTION
  2
TABLES
  0
TABLE
  2
LTYPE
  70
1
  0
LTYPE
  2
CONTINUOUS
  3
Solid Line
  72
65
  73
0
  40
0.0
  0
ENDTAB
  0
TABLE
  2
LAYER
  70
1
  0
LAYER
  2
OpenJsCad
  62
7
  6
continuous
  0
ENDTAB
  0
TABLE
  2
STYLE
  70
0
  0
ENDTAB
  0
TABLE
  2
VIEW
  70
0
  0
ENDTAB
  0
ENDSEC
  0
SECTION
  2
BLOCKS
  0
ENDSEC
  0
SECTION
  2
ENTITIES
  0
LWPOLYLINE
  8
OpenJsCad
  90
457
  70
1
 10
31.667349733732777
 20
-9.477933527815228
 30
0.0
 10
31.976228942117956
 20
-8.568004722033198
 30
0.0
 10
32.16369610384658
 20
-7.625543656398133
 30
0.0
 10
31.486476614196164
 20
-7.028878229962151
 30
0.0
 10
30.571310721415557
 20
-6.354610294890315
 30
0.0
 10
29.78895868864631
 20
-5.877403092389345
 30
0.0
 10
29.165373962809714
 20
-5.568100867879595
 30
0.0
 10
28.722367945749493
 20
-5.394651723475533
 30
0.0
 10
28.216956911498816
 20
-5.246076355783762
 30
0.0
 10
27.768675556526627
 20
-5.021254698231774
 30
0.0
 10
27.573446025612164
 20
-4.778493887731326
 30
0.0
 10
27.870668860977286
 20
-2.5208623136106394
 30
0.0
 10
28.12207722810392
 20
-2.336902497904211
 30
0.0
 10
28.61327189304137
 20
-2.2357652047966665
 30
0.0
 10
29.13991559870711
 20
-2.223062421262169
 30
0.0
 10
29.612718493715757
 20
-2.170181807444792
 30
0.0
 10
30.295108391676425
 20
-2.0328144039437053
 30
0.0
 10
31.174312737845245
 20
-1.7743552486116803
 30
0.0
 10
32.23280849212474
 20
-1.359924798765092
 30
0.0
 10
33.041380663155046
 20
-0.958867555355508
 30
0.0
 10
33.10422816311423
 20
2.5069251350982487e-16
 30
0.0
 10
33.041380663155046
 20
0.958867555355509
 30
0.0
 10
32.23280849211956
 20
1.359924798767666
 30
0.0
 10
31.174312737845337
 20
1.774355248612281
 30
0.0
 10
30.295108391676422
 20
2.0328144039437728
 30
0.0
 10
29.612718493715764
 20
2.1701818074448544
 30
0.0
 10
29.139915598707333
 20
2.2230624212622825
 30
0.0
 10
28.613271893041393
 20
2.2357652047971213
 30
0.0
 10
28.12207722810393
 20
2.3369024979045383
 30
0.0
 10
27.870668860977307
 20
2.5208623136106922
 30
0.0
 10
27.573446025612128
 20
4.778493887731371
 30
0.0
 10
27.76867555652653
 20
5.021254698232086
 30
0.0
 10
28.216956911498677
 20
5.246076355784195
 30
0.0
 10
28.722367945749248
 20
5.394651723475585
 30
0.0
 10
29.165373962809692
 20
5.568100867879654
 30
0.0
 10
29.7889586886463
 20
5.877403092389412
 30
0.0
 10
30.57131072141532
 20
6.354610294890874
 30
0.0
 10
31.486476614200505
 20
7.028878229965979
 30
0.0
 10
32.16369610384658
 20
7.6255436563981345
 30
0.0
 10
31.976228942117956
 20
8.5680047220332
 30
0.0
 10
31.667349733732785
 20
9.47793352781523
 30
0.0
 10
30.782527738539596
 20
9.656051199843457
 30
0.0
 10
29.652836859178606
 20
9.782401414182642
 30
0.0
 10
28.736696522847556
 20
9.804498958032761
 30
0.0
 10
28.042005196606233
 20
9.760570178986946
 30
0.0
 10
27.57162615960069
 20
9.689278535775427
 30
0.0
 10
27.05963968074075
 20
9.565243061447777
 30
0.0
 10
26.55900581051593
 20
9.535803650722631
 30
0.0
 10
26.268551671924865
 20
9.648425914202086
 30
0.0
 10
25.39713841087556
 20
11.752203627459012
 30
0.0
 10
25.52288453567797
 20
12.0372216846996
 30
0.0
 10
25.89770294716342
 20
12.370406482269454
 30
0.0
 10
26.347438383245873
 20
12.64472926834197
 30
0.0
 10
26.7304573943975
 20
12.926926670779858
 30
0.0
 10
27.252740679566767
 20
13.38708528084404
 30
0.0
 10
27.884924400800642
 20
14.050519648286652
 30
0.0
 10
28.594393388881358
 20
14.938674823095356
 30
0.0
 10
29.09410880808195
 20
15.690286669774968
 30
0.0
 10
28.669102561933187
 20
16.55211408155711
 30
0.0
 10
28.135241252726438
 20
17.351093993380072
 30
0.0
 10
27.23446859011049
 20
17.294133669029016
 30
0.0
 10
26.110569152188738
 20
17.123793089559154
 30
0.0
 10
25.219926275623024
 20
16.908023110832435
 30
0.0
 10
24.56027558695268
 20
16.68579182293595
 30
0.0
 10
24.12437596198384
 20
16.495186330365343
 30
0.0
 10
23.661937742366547
 20
16.24286541077232
 30
0.0
 10
23.185982037773606
 20
16.084855543404604
 30
0.0
 10
22.876276097264913
 20
16.118465233518325
 30
0.0
 10
21.490057784193485
 20
17.92502011141009
 30
0.0
 10
21.53775111228392
 20
18.232871905804213
 30
0.0
 10
21.81356332495665
 20
18.65171385005134
 30
0.0
 10
22.17697443612492
 20
19.033089409973982
 30
0.0
 10
22.47390432872659
 20
19.404803783822803
 30
0.0
 10
22.85929343045817
 20
19.984459730613594
 30
0.0
 10
23.298226564287802
 20
20.788909307233272
 30
0.0
 10
23.75364950857929
 20
21.83042541435819
 30
0.0
 10
24.04180607733465
 20
22.685762576031347
 30
0.0
 10
23.40822422008476
 20
23.408224220084755
 30
0.0
 10
22.685762576031355
 20
24.041806077334645
 30
0.0
 10
21.83042541435271
 20
23.75364950857744
 30
0.0
 10
20.78890930723292
 20
23.298226564288285
 30
0.0
 10
19.98445973061355
 20
22.859293430458205
 30
0.0
 10
19.40480378382277
 20
22.473904328726633
 30
0.0
 10
19.033089409974068
 20
22.176974436125153
 30
0.0
 10
18.651713850051042
 20
21.813563324956984
 30
0.0
 10
18.232871905804
 20
21.537751112284152
 30
0.0
 10
17.92502011141008
 20
21.49005778419353
 30
0.0
 10
16.118465233518275
 20
22.876276097264913
 30
0.0
 10
16.084855543404323
 20
23.185982037773755
 30
0.0
 10
16.242865410771923
 20
23.661937742366746
 30
0.0
 10
16.49518633036514
 20
24.1243759619837
 30
0.0
 10
16.6857918229359
 20
24.560275586952706
 30
0.0
 10
16.90802311083239
 20
25.219926275623056
 30
0.0
 10
17.123793089558596
 20
26.110569152188955
 30
0.0
 10
17.294133669029385
 20
27.23446859011626
 30
0.0
 10
17.35109399338008
 20
28.135241252726434
 30
0.0
 10
16.552114081557114
 20
28.669102561933187
 30
0.0
 10
15.690286669774968
 20
29.09410880808195
 30
0.0
 10
14.938674823090535
 20
28.594393388878157
 30
0.0
 10
14.050519648286176
 20
27.884924400801015
 30
0.0
 10
13.38708528084398
 20
27.2527406795668
 30
0.0
 10
12.926926670779809
 20
26.730457394397536
 30
0.0
 10
12.644729268341985
 20
26.34743838324612
 30
0.0
 10
12.37040648226907
 20
25.897702947163665
 30
0.0
 10
12.037221684699324
 20
25.52288453567814
 30
0.0
 10
11.752203627458979
 20
25.397138410875602
 30
0.0
 10
9.648425914202031
 20
26.268551671924854
 30
0.0
 10
9.535803650722313
 20
26.559005810516005
 30
0.0
 10
9.565243061447331
 20
27.059639680740844
 30
0.0
 10
9.68927853577526
 20
27.571626159600505
 30
0.0
 10
9.760570178986884
 20
28.042005196606244
 30
0.0
 10
9.804498958032699
 20
28.736696522847577
 30
0.0
 10
9.782401414182038
 20
29.652836859178674
 30
0.0
 10
9.656051199842313
 20
30.78252773854527
 30
0.0
 10
9.47793352781523
 20
31.667349733732777
 30
0.0
 10
8.5680047220332
 20
31.976228942117956
 30
0.0
 10
7.6255436563981345
 20
32.16369610384658
 30
0.0
 10
7.028878229962153
 20
31.486476614196164
 30
0.0
 10
6.354610294890317
 20
30.571310721415557
 30
0.0
 10
5.877403092389347
 20
29.78895868864631
 30
0.0
 10
5.568100867879597
 20
29.165373962809714
 30
0.0
 10
5.394651723475535
 20
28.722367945749493
 30
0.0
 10
5.246076355783764
 20
28.216956911498816
 30
0.0
 10
5.021254698231775
 20
27.768675556526627
 30
0.0
 10
4.778493887731328
 20
27.573446025612164
 30
0.0
 10
2.520862313610641
 20
27.870668860977286
 30
0.0
 10
2.336902497904213
 20
28.12207722810392
 30
0.0
 10
2.2357652047966683
 20
28.61327189304137
 30
0.0
 10
2.2230624212621706
 20
29.13991559870711
 30
0.0
 10
2.1701818074447936
 20
29.612718493715757
 30
0.0
 10
2.032814403943707
 20
30.295108391676425
 30
0.0
 10
1.7743552486116823
 20
31.174312737845245
 30
0.0
 10
1.359924798765094
 20
32.23280849212474
 30
0.0
 10
0.95886755535551
 20
33.041380663155046
 30
0.0
 10
-3.803406192310326e-15
 20
33.10422816311423
 30
0.0
 10
-0.9588675553555126
 20
33.041380663155046
 30
0.0
 10
-1.3599247987676695
 20
32.23280849211956
 30
0.0
 10
-1.7743552486122847
 20
31.174312737845337
 30
0.0
 10
-2.0328144039437763
 20
30.295108391676425
 30
0.0
 10
-2.170181807444858
 20
29.612718493715764
 30
0.0
 10
-2.223062421262286
 20
29.139915598707333
 30
0.0
 10
-2.235765204797125
 20
28.613271893041397
 30
0.0
 10
-2.336902497904541
 20
28.12207722810393
 30
0.0
 10
-2.520862313610696
 20
27.87066886097731
 30
0.0
 10
-4.778493887731374
 20
27.573446025612128
 30
0.0
 10
-5.02125469823209
 20
27.76867555652653
 30
0.0
 10
-5.246076355784199
 20
28.216956911498677
 30
0.0
 10
-5.394651723475588
 20
28.722367945749248
 30
0.0
 10
-5.568100867879657
 20
29.165373962809692
 30
0.0
 10
-5.877403092389415
 20
29.7889586886463
 30
0.0
 10
-6.354610294890877
 20
30.57131072141532
 30
0.0
 10
-7.028878229965983
 20
31.486476614200505
 30
0.0
 10
-7.625543656398138
 20
32.16369610384658
 30
0.0
 10
-8.568004722033193
 20
31.976228942117956
 30
0.0
 10
-9.477933527815226
 20
31.66734973373278
 30
0.0
 10
-9.656051199843452
 20
30.782527738539592
 30
0.0
 10
-9.782401414182635
 20
29.652836859178606
 30
0.0
 10
-9.804498958032758
 20
28.736696522847556
 30
0.0
 10
-9.76057017898694
 20
28.042005196606233
 30
0.0
 10
-9.689278535775424
 20
27.57162615960069
 30
0.0
 10
-9.565243061447772
 20
27.05963968074075
 30
0.0
 10
-9.535803650722627
 20
26.55900581051593
 30
0.0
 10
-9.648425914202083
 20
26.26855167192486
 30
0.0
 10
-11.752203627459009
 20
25.39713841087556
 30
0.0
 10
-12.037221684699595
 20
25.52288453567797
 30
0.0
 10
-12.370406482269447
 20
25.897702947163417
 30
0.0
 10
-12.644729268341965
 20
26.347438383245873
 30
0.0
 10
-12.926926670779853
 20
26.7304573943975
 30
0.0
 10
-13.387085280844035
 20
27.252740679566767
 30
0.0
 10
-14.050519648286647
 20
27.884924400800642
 30
0.0
 10
-14.938674823095353
 20
28.594393388881358
 30
0.0
 10
-15.690286669774965
 20
29.09410880808195
 30
0.0
 10
-16.55211408155711
 20
28.669102561933187
 30
0.0
 10
-17.351093993380072
 20
28.135241252726438
 30
0.0
 10
-17.294133669029016
 20
27.23446859011049
 30
0.0
 10
-17.123793089559154
 20
26.110569152188738
 30
0.0
 10
-16.908023110832435
 20
25.219926275623024
 30
0.0
 10
-16.68579182293595
 20
24.56027558695268
 30
0.0
 10
-16.495186330365343
 20
24.12437596198384
 30
0.0
 10
-16.24286541077232
 20
23.661937742366547
 30
0.0
 10
-16.084855543404604
 20
23.185982037773606
 30
0.0
 10
-16.118465233518325
 20
22.876276097264913
 30
0.0
 10
-17.92502011141009
 20
21.490057784193485
 30
0.0
 10
-18.232871905804213
 20
21.53775111228392
 30
0.0
 10
-18.65171385005134
 20
21.81356332495665
 30
0.0
 10
-19.033089409973982
 20
22.17697443612492
 30
0.0
 10
-19.404803783822803
 20
22.47390432872659
 30
0.0
 10
-19.984459730613594
 20
22.85929343045817
 30
0.0
 10
-20.788909307233272
 20
23.298226564287802
 30
0.0
 10
-21.83042541435819
 20
23.75364950857929
 30
0.0
 10
-22.685762576031347
 20
24.04180607733465
 30
0.0
 10
-23.40822422008476
 20
23.408224220084755
 30
0.0
 10
-24.04180607733465
 20
22.685762576031347
 30
0.0
 10
-23.753649508577443
 20
21.830425414352703
 30
0.0
 10
-23.298226564288292
 20
20.788909307232913
 30
0.0
 10
-22.859293430458212
 20
19.984459730613548
 30
0.0
 10
-22.47390432872664
 20
19.404803783822764
 30
0.0
 10
-22.176974436125157
 20
19.033089409974064
 30
0.0
 10
-21.813563324956988
 20
18.65171385005104
 30
0.0
 10
-21.53775111228416
 20
18.232871905803997
 30
0.0
 10
-21.490057784193535
 20
17.925020111410078
 30
0.0
 10
-22.876276097264917
 20
16.118465233518272
 30
0.0
 10
-23.18598203777376
 20
16.084855543404316
 30
0.0
 10
-23.66193774236675
 20
16.242865410771916
 30
0.0
 10
-24.124375961983702
 20
16.495186330365136
 30
0.0
 10
-24.56027558695271
 20
16.685791822935897
 30
0.0
 10
-25.219926275623063
 20
16.90802311083238
 30
0.0
 10
-26.11056915218896
 20
17.123793089558593
 30
0.0
 10
-27.234468590116265
 20
17.294133669029378
 30
0.0
 10
-28.135241252726438
 20
17.351093993380072
 30
0.0
 10
-28.66910256193318
 20
16.55211408155712
 30
0.0
 10
-29.09410880808194
 20
15.690286669774975
 30
0.0
 10
-28.59439338887815
 20
14.938674823090544
 30
0.0
 10
-27.88492440080101
 20
14.050519648286185
 30
0.0
 10
-27.25274067956679
 20
13.387085280843989
 30
0.0
 10
-26.730457394397533
 20
12.926926670779816
 30
0.0
 10
-26.34743838324612
 20
12.644729268341992
 30
0.0
 10
-25.89770294716366
 20
12.370406482269077
 30
0.0
 10
-25.522884535678138
 20
12.03722168469933
 30
0.0
 10
-25.397138410875595
 20
11.752203627458986
 30
0.0
 10
-26.26855167192485
 20
9.648425914202038
 30
0.0
 10
-26.559005810516002
 20
9.53580365072232
 30
0.0
 10
-27.05963968074084
 20
9.565243061447338
 30
0.0
 10
-27.5716261596005
 20
9.689278535775268
 30
0.0
 10
-28.04200519660624
 20
9.76057017898689
 30
0.0
 10
-28.736696522847573
 20
9.804498958032708
 30
0.0
 10
-29.65283685917867
 20
9.782401414182047
 30
0.0
 10
-30.782527738545266
 20
9.656051199842322
 30
0.0
 10
-31.667349733732774
 20
9.477933527815239
 30
0.0
 10
-31.976228942117956
 20
8.568004722033201
 30
0.0
 10
-32.16369610384658
 20
7.625543656398136
 30
0.0
 10
-31.486476614196164
 20
7.028878229962155
 30
0.0
 10
-30.571310721415557
 20
6.3546102948903185
 30
0.0
 10
-29.78895868864631
 20
5.877403092389349
 30
0.0
 10
-29.165373962809714
 20
5.568100867879599
 30
0.0
 10
-28.722367945749493
 20
5.394651723475537
 30
0.0
 10
-28.216956911498816
 20
5.2460763557837655
 30
0.0
 10
-27.768675556526627
 20
5.021254698231777
 30
0.0
 10
-27.573446025612164
 20
4.778493887731329
 30
0.0
 10
-27.870668860977286
 20
2.520862313610643
 30
0.0
 10
-28.12207722810392
 20
2.3369024979042146
 30
0.0
 10
-28.61327189304137
 20
2.23576520479667
 30
0.0
 10
-29.13991559870711
 20
2.2230624212621724
 30
0.0
 10
-29.612718493715757
 20
2.1701818074447954
 30
0.0
 10
-30.295108391676425
 20
2.032814403943709
 30
0.0
 10
-31.174312737845245
 20
1.774355248611684
 30
0.0
 10
-32.23280849212474
 20
1.359924798765096
 30
0.0
 10
-33.041380663155046
 20
0.958867555355512
 30
0.0
 10
-33.10422816311423
 20
-2.0270493529100753e-15
 30
0.0
 10
-33.041380663155046
 20
-0.9588675553555108
 30
0.0
 10
-32.23280849211956
 20
-1.3599247987676677
 30
0.0
 10
-31.174312737845337
 20
-1.7743552486122829
 30
0.0
 10
-30.295108391676425
 20
-2.0328144039437746
 30
0.0
 10
-29.612718493715764
 20
-2.1701818074448562
 30
0.0
 10
-29.139915598707333
 20
-2.2230624212622843
 30
0.0
 10
-28.613271893041397
 20
-2.235765204797123
 30
0.0
 10
-28.12207722810393
 20
-2.33690249790454
 30
0.0
 10
-27.87066886097731
 20
-2.520862313610694
 30
0.0
 10
-27.573446025612128
 20
-4.778493887731373
 30
0.0
 10
-27.76867555652653
 20
-5.021254698232088
 30
0.0
 10
-28.216956911498677
 20
-5.246076355784197
 30
0.0
 10
-28.722367945749248
 20
-5.394651723475587
 30
0.0
 10
-29.165373962809692
 20
-5.5681008678796555
 30
0.0
 10
-29.7889586886463
 20
-5.877403092389414
 30
0.0
 10
-30.57131072141532
 20
-6.354610294890875
 30
0.0
 10
-31.486476614200505
 20
-7.028878229965981
 30
0.0
 10
-32.16369610384658
 20
-7.625543656398136
 30
0.0
 10
-31.976228942117956
 20
-8.568004722033205
 30
0.0
 10
-31.66734973373278
 20
-9.477933527815237
 30
0.0
 10
-30.782527738539592
 20
-9.656051199843462
 30
0.0
 10
-29.652836859178606
 20
-9.782401414182646
 30
0.0
 10
-28.736696522847556
 20
-9.804498958032768
 30
0.0
 10
-28.042005196606233
 20
-9.760570178986951
 30
0.0
 10
-27.571626159600687
 20
-9.689278535775435
 30
0.0
 10
-27.059639680740748
 20
-9.565243061447783
 30
0.0
 10
-26.55900581051593
 20
-9.535803650722636
 30
0.0
 10
-26.26855167192486
 20
-9.648425914202091
 30
0.0
 10
-25.397138410875556
 20
-11.75220362745902
 30
0.0
 10
-25.522884535677967
 20
-12.037221684699606
 30
0.0
 10
-25.897702947163417
 20
-12.370406482269459
 30
0.0
 10
-26.34743838324587
 20
-12.644729268341976
 30
0.0
 10
-26.730457394397497
 20
-12.926926670779864
 30
0.0
 10
-27.252740679566767
 20
-13.387085280844046
 30
0.0
 10
-27.88492440080064
 20
-14.050519648286658
 30
0.0
 10
-28.594393388881354
 20
-14.938674823095363
 30
0.0
 10
-29.094108808081945
 20
-15.690286669774975
 30
0.0
 10
-28.66910256193319
 20
-16.55211408155711
 30
0.0
 10
-28.13524125272644
 20
-17.35109399338007
 30
0.0
 10
-27.234468590110495
 20
-17.294133669029016
 30
0.0
 10
-26.11056915218874
 20
-17.123793089559154
 30
0.0
 10
-25.219926275623024
 20
-16.908023110832435
 30
0.0
 10
-24.560275586952685
 20
-16.68579182293595
 30
0.0
 10
-24.124375961983844
 20
-16.495186330365343
 30
0.0
 10
-23.661937742366547
 20
-16.24286541077232
 30
0.0
 10
-23.18598203777361
 20
-16.084855543404604
 30
0.0
 10
-22.876276097264913
 20
-16.118465233518325
 30
0.0
 10
-21.49005778419349
 20
-17.92502011141009
 30
0.0
 10
-21.53775111228392
 20
-18.232871905804213
 30
0.0
 10
-21.813563324956654
 20
-18.65171385005134
 30
0.0
 10
-22.176974436124922
 20
-19.033089409973982
 30
0.0
 10
-22.473904328726594
 20
-19.404803783822803
 30
0.0
 10
-22.859293430458173
 20
-19.984459730613594
 30
0.0
 10
-23.298226564287805
 20
-20.788909307233272
 30
0.0
 10
-23.753649508579294
 20
-21.83042541435819
 30
0.0
 10
-24.041806077334652
 20
-22.685762576031347
 30
0.0
 10
-23.40822422008477
 20
-23.408224220084747
 30
0.0
 10
-22.685762576031365
 20
-24.041806077334638
 30
0.0
 10
-21.830425414352717
 20
-23.753649508577432
 30
0.0
 10
-20.788909307232927
 20
-23.29822656428828
 30
0.0
 10
-19.98445973061356
 20
-22.8592934304582
 30
0.0
 10
-19.40480378382278
 20
-22.47390432872663
 30
0.0
 10
-19.033089409974075
 20
-22.176974436125146
 30
0.0
 10
-18.65171385005105
 20
-21.813563324956977
 30
0.0
 10
-18.232871905804007
 20
-21.537751112284152
 30
0.0
 10
-17.925020111410088
 20
-21.490057784193528
 30
0.0
 10
-16.118465233518286
 20
-22.87627609726491
 30
0.0
 10
-16.08485554340433
 20
-23.18598203777375
 30
0.0
 10
-16.24286541077193
 20
-23.661937742366742
 30
0.0
 10
-16.49518633036515
 20
-24.124375961983695
 30
0.0
 10
-16.68579182293591
 20
-24.5602755869527
 30
0.0
 10
-16.9080231108324
 20
-25.219926275623052
 30
0.0
 10
-17.123793089558607
 20
-26.11056915218895
 30
0.0
 10
-17.294133669029396
 20
-27.234468590116258
 30
0.0
 10
-17.35109399338009
 20
-28.13524125272643
 30
0.0
 10
-16.552114081557107
 20
-28.669102561933187
 30
0.0
 10
-15.690286669774965
 20
-29.09410880808195
 30
0.0
 10
-14.938674823090532
 20
-28.594393388878157
 30
0.0
 10
-14.050519648286175
 20
-27.88492440080102
 30
0.0
 10
-13.387085280843976
 20
-27.2527406795668
 30
0.0
 10
-12.926926670779805
 20
-26.730457394397536
 30
0.0
 10
-12.644729268341981
 20
-26.34743838324612
 30
0.0
 10
-12.370406482269068
 20
-25.897702947163665
 30
0.0
 10
-12.03722168469932
 20
-25.52288453567814
 30
0.0
 10
-11.752203627458977
 20
-25.397138410875602
 30
0.0
 10
-9.648425914202027
 20
-26.268551671924854
 30
0.0
 10
-9.53580365072231
 20
-26.559005810516005
 30
0.0
 10
-9.565243061447328
 20
-27.059639680740844
 30
0.0
 10
-9.689278535775257
 20
-27.571626159600505
 30
0.0
 10
-9.76057017898688
 20
-28.042005196606244
 30
0.0
 10
-9.804498958032696
 20
-28.736696522847577
 30
0.0
 10
-9.782401414182035
 20
-29.652836859178674
 30
0.0
 10
-9.65605119984231
 20
-30.78252773854527
 30
0.0
 10
-9.477933527815226
 20
-31.667349733732777
 30
0.0
 10
-8.568004722033203
 20
-31.976228942117956
 30
0.0
 10
-7.625543656398139
 20
-32.16369610384658
 30
0.0
 10
-7.0288782299621575
 20
-31.486476614196164
 30
0.0
 10
-6.35461029489032
 20
-30.571310721415557
 30
0.0
 10
-5.8774030923893505
 20
-29.78895868864631
 30
0.0
 10
-5.5681008678796005
 20
-29.165373962809714
 30
0.0
 10
-5.394651723475539
 20
-28.722367945749493
 30
0.0
 10
-5.246076355783767
 20
-28.216956911498816
 30
0.0
 10
-5.021254698231779
 20
-27.768675556526627
 30
0.0
 10
-4.778493887731331
 20
-27.573446025612164
 30
0.0
 10
-2.5208623136106447
 20
-27.870668860977286
 30
0.0
 10
-2.3369024979042163
 20
-28.12207722810392
 30
0.0
 10
-2.235765204796672
 20
-28.61327189304137
 30
0.0
 10
-2.223062421262174
 20
-29.13991559870711
 30
0.0
 10
-2.170181807444797
 20
-29.612718493715757
 30
0.0
 10
-2.032814403943711
 20
-30.295108391676425
 30
0.0
 10
-1.774355248611686
 20
-31.174312737845245
 30
0.0
 10
-1.359924798765098
 20
-32.23280849212474
 30
0.0
 10
-0.9588675553555142
 20
-33.041380663155046
 30
0.0
 10
1.2685190389311577e-14
 20
-33.10422816311423
 30
0.0
 10
0.9588675553555224
 20
-33.041380663155046
 30
0.0
 10
1.3599247987676792
 20
-32.23280849211956
 30
0.0
 10
1.7743552486122944
 20
-31.174312737845334
 30
0.0
 10
2.032814403943785
 20
-30.295108391676422
 30
0.0
 10
2.170181807444867
 20
-29.612718493715764
 30
0.0
 10
2.223062421262295
 20
-29.139915598707336
 30
0.0
 10
2.2357652047971337
 20
-28.613271893041393
 30
0.0
 10
2.33690249790455
 20
-28.122077228103926
 30
0.0
 10
2.520862313610704
 20
-27.870668860977307
 30
0.0
 10
4.778493887731383
 20
-27.573446025612125
 30
0.0
 10
5.021254698232098
 20
-27.768675556526528
 30
0.0
 10
5.246076355784207
 20
-28.216956911498674
 30
0.0
 10
5.394651723475597
 20
-28.722367945749248
 30
0.0
 10
5.568100867879666
 20
-29.16537396280969
 30
0.0
 10
5.877403092389424
 20
-29.788958688646296
 30
0.0
 10
6.354610294890884
 20
-30.571310721415315
 30
0.0
 10
7.028878229965992
 20
-31.486476614200505
 30
0.0
 10
7.625543656398147
 20
-32.163696103846576
 30
0.0
 10
8.568004722033205
 20
-31.976228942117956
 30
0.0
 10
9.477933527815237
 20
-31.66734973373278
 30
0.0
 10
9.656051199843462
 20
-30.782527738539592
 30
0.0
 10
9.782401414182646
 20
-29.652836859178606
 30
0.0
 10
9.804498958032768
 20
-28.736696522847556
 30
0.0
 10
9.760570178986951
 20
-28.042005196606233
 30
0.0
 10
9.689278535775435
 20
-27.571626159600687
 30
0.0
 10
9.565243061447783
 20
-27.059639680740748
 30
0.0
 10
9.535803650722636
 20
-26.55900581051593
 30
0.0
 10
9.648425914202091
 20
-26.26855167192486
 30
0.0
 10
11.75220362745902
 20
-25.397138410875556
 30
0.0
 10
12.037221684699606
 20
-25.522884535677967
 30
0.0
 10
12.370406482269459
 20
-25.897702947163417
 30
0.0
 10
12.644729268341976
 20
-26.34743838324587
 30
0.0
 10
12.926926670779864
 20
-26.730457394397497
 30
0.0
 10
13.387085280844046
 20
-27.252740679566767
 30
0.0
 10
14.050519648286658
 20
-27.88492440080064
 30
0.0
 10
14.938674823095363
 20
-28.594393388881354
 30
0.0
 10
15.690286669774975
 20
-29.094108808081945
 30
0.0
 10
16.552114081557132
 20
-28.669102561933173
 30
0.0
 10
17.351093993380093
 20
-28.135241252726424
 30
0.0
 10
17.294133669029037
 20
-27.234468590110477
 30
0.0
 10
17.12379308955917
 20
-26.110569152188724
 30
0.0
 10
16.908023110832456
 20
-25.21992627562301
 30
0.0
 10
16.685791822935972
 20
-24.56027558695267
 30
0.0
 10
16.495186330365364
 20
-24.12437596198383
 30
0.0
 10
16.24286541077234
 20
-23.661937742366533
 30
0.0
 10
16.084855543404622
 20
-23.185982037773595
 30
0.0
 10
16.118465233518343
 20
-22.876276097264896
 30
0.0
 10
17.925020111410113
 20
-21.49005778419347
 30
0.0
 10
18.232871905804235
 20
-21.537751112283907
 30
0.0
 10
18.651713850051358
 20
-21.813563324956636
 30
0.0
 10
19.033089409974
 20
-22.1769744361249
 30
0.0
 10
19.40480378382282
 20
-22.473904328726572
 30
0.0
 10
19.984459730613615
 20
-22.859293430458152
 30
0.0
 10
20.78890930723329
 20
-23.298226564287788
 30
0.0
 10
21.830425414358206
 20
-23.753649508579272
 30
0.0
 10
22.685762576031365
 20
-24.04180607733463
 30
0.0
 10
23.408224220084744
 20
-23.40822422008477
 30
0.0
 10
24.041806077334634
 20
-22.68576257603136
 30
0.0
 10
23.75364950857743
 20
-21.830425414352717
 30
0.0
 10
23.298226564288278
 20
-20.788909307232927
 30
0.0
 10
22.859293430458198
 20
-19.98445973061356
 30
0.0
 10
22.47390432872663
 20
-19.40480378382278
 30
0.0
 10
22.176974436125143
 20
-19.033089409974075
 30
0.0
 10
21.813563324956977
 20
-18.65171385005105
 30
0.0
 10
21.53775111228415
 20
-18.232871905804007
 30
0.0
 10
21.490057784193528
 20
-17.925020111410088
 30
0.0
 10
22.876276097264906
 20
-16.118465233518286
 30
0.0
 10
23.18598203777375
 20
-16.08485554340433
 30
0.0
 10
23.66193774236674
 20
-16.24286541077193
 30
0.0
 10
24.12437596198369
 20
-16.49518633036515
 30
0.0
 10
24.560275586952695
 20
-16.68579182293591
 30
0.0
 10
25.21992627562305
 20
-16.9080231108324
 30
0.0
 10
26.110569152188948
 20
-17.123793089558607
 30
0.0
 10
27.234468590116254
 20
-17.294133669029396
 30
0.0
 10
28.135241252726427
 20
-17.35109399338009
 30
0.0
 10
28.669102561933187
 20
-16.55211408155711
 30
0.0
 10
29.09410880808195
 20
-15.690286669774967
 30
0.0
 10
28.594393388878157
 20
-14.938674823090535
 30
0.0
 10
27.88492440080102
 20
-14.050519648286175
 30
0.0
 10
27.2527406795668
 20
-13.387085280843978
 30
0.0
 10
26.730457394397536
 20
-12.926926670779805
 30
0.0
 10
26.34743838324612
 20
-12.644729268341985
 30
0.0
 10
25.897702947163665
 20
-12.37040648226907
 30
0.0
 10
25.52288453567814
 20
-12.03722168469932
 30
0.0
 10
25.397138410875602
 20
-11.752203627458977
 30
0.0
 10
26.268551671924854
 20
-9.648425914202027
 30
0.0
 10
26.559005810516005
 20
-9.535803650722311
 30
0.0
 10
27.059639680740844
 20
-9.565243061447331
 30
0.0
 10
27.571626159600505
 20
-9.689278535775259
 30
0.0
 10
28.042005196606244
 20
-9.760570178986882
 30
0.0
 10
28.736696522847577
 20
-9.804498958032697
 30
0.0
 10
29.652836859178674
 20
-9.782401414182036
 30
0.0
 10
30.78252773854527
 20
-9.656051199842311
 30
0.0
 10
31.667349733732777
 20
-9.477933527815228
 30
0.0
  0
LWPOLYLINE
  8
OpenJsCad
  90
31
  70
1
 10
0.7276909178621578
 20
-3.42351660256832
 30
0.0
 10
2.143131898507868e-16
 20
-3.5
 30
0.0
 10
-0.7276909178621562
 20
-3.42351660256832
 30
0.0
 10
-1.4235782507653003
 20
-3.1974091017491033
 30
0.0
 10
-2.0572483830236568
 20
-2.8315594803123156
 30
0.0
 10
-2.601006889170879
 20
-2.3419571222560047
 30
0.0
 10
-3.031088913245535
 20
-1.7500000000000007
 30
0.0
 10
-3.3286978070330377
 20
-1.0815594803123154
 30
0.0
 10
-3.480826633788957
 20
-0.3658496214367857
 30
0.0
 10
-3.4808266337889564
 20
0.3658496214367896
 30
0.0
 10
-3.3286978070330373
 20
1.0815594803123163
 30
0.0
 10
-3.0310889132455348
 20
1.7500000000000013
 30
0.0
 10
-2.601006889170879
 20
2.3419571222560047
 30
0.0
 10
-2.0572483830236554
 20
2.831559480312316
 30
0.0
 10
-1.423578250765301
 20
3.197409101749103
 30
0.0
 10
-0.7276909178621569
 20
3.42351660256832
 30
0.0
 10
1.768625424326006e-15
 20
3.5
 30
0.0
 10
0.7276909178621573
 20
3.42351660256832
 30
0.0
 10
1.4235782507652999
 20
3.1974091017491033
 30
0.0
 10
2.0572483830236563
 20
2.8315594803123156
 30
0.0
 10
2.601006889170881
 20
2.3419571222560025
 30
0.0
 10
3.0310889132455356
 20
1.7499999999999993
 30
0.0
 10
3.3286978070330377
 20
1.0815594803123159
 30
0.0
 10
3.480826633788957
 20
0.3658496214367869
 30
0.0
 10
3.4808266337889564
 20
-0.3658496214367869
 30
0.0
 10
3.3286978070330373
 20
-1.0815594803123159
 30
0.0
 10
3.031088913245535
 20
-1.7500000000000002
 30
0.0
 10
2.60100688917088
 20
-2.341957122256004
 30
0.0
 10
2.057248383023656
 20
-2.831559480312316
 30
0.0
 10
1.4235782507653008
 20
-3.197409101749103
 30
0.0
 10
0.7276909178621578
 20
-3.42351660256832
 30
0.0
  0
LWPOLYLINE
  8
OpenJsCad
  90
121
  70
1
 10
29.3477071212144
 20
5.5595368336880835
 30
0.0
 10
28.98046587787715
 20
4.872476792022168
 30
0.0
 10
28.75431983682801
 20
4.126973203982729
 30
0.0
 10
28.93607046784899
 20
3.756273393922999
 30
0.0
 10
30.04860069796006
 20
2.481777061429565
 30
0.0
 10
30.901538506266387
 20
1.9090215332924974
 30
0.0
 10
31.24504029052764
 20
1.7915370038068383
 30
0.0
 10
32.427967793887156
 20
1.711272225809989
 30
0.0
 10
33.154228163114226
 20
1.1385562939891423
 30
0.0
 10
33.15422816311422
 20
-1.1385562939891571
 30
0.0
 10
32.42796779388716
 20
-1.7112722258099964
 30
0.0
 10
31.245040290527637
 20
-1.791537003806853
 30
0.0
 10
30.901538506266387
 20
-1.9090215332925098
 30
0.0
 10
30.048600697960033
 20
-2.481777061429595
 30
0.0
 10
28.936070467848992
 20
-3.756273393922992
 30
0.0
 10
28.75431983682801
 20
-4.1269732039827245
 30
0.0
 10
28.98046587787715
 20
-4.8724767920221606
 30
0.0
 10
29.3477071212144
 20
-5.559536833688087
 30
0.0
 10
29.73834857437207
 20
-5.69314407948602
 30
0.0
 10
31.426231243662127
 20
-5.807671408802942
 30
0.0
 10
32.434348669753724
 20
-5.609552618526951
 30
0.0
 10
32.760315218238354
 20
-5.44973428500996
 30
0.0
 10
33.653527046327945
 20
-4.670033994544381
 30
0.0
 10
34.57204199739955
 20
-4.5614616816409645
 30
0.0
 10
36.18220374988425
 20
-6.171623434125674
 30
0.0
 10
36.07363143698083
 20
-7.090138385197262
 30
0.0
 10
35.293931146515256
 20
-7.9833502132868635
 30
0.0
 10
35.13411281299827
 20
-8.309316761771491
 30
0.0
 10
34.93599402272226
 20
-9.317434187863121
 30
0.0
 10
35.05052135203918
 20
-11.005316857153137
 30
0.0
 10
35.184128597837116
 20
-11.395958310310803
 30
0.0
 10
35.87118863950304
 20
-11.763199553648057
 30
0.0
 10
36.61669222754248
 20
-11.989345594697197
 30
0.0
 10
36.987392037602206
 20
-11.807594963676221
 30
0.0
 10
38.26188837009564
 20
-10.695064733565145
 30
0.0
 10
38.83464389823271
 20
-9.842126925258821
 30
0.0
 10
38.95212842771837
 20
-9.498625140997566
 30
0.0
 10
39.032393205715216
 20
-8.315697637638054
 30
0.0
 10
39.60510913753607
 20
-7.589437268410981
 30
0.0
 10
41.88222172551436
 20
-7.589437268410987
 30
0.0
 10
42.45493765733521
 20
-8.31569763763805
 30
0.0
 10
42.53520243533206
 20
-9.498625140997571
 30
0.0
 10
42.65268696481772
 20
-9.842126925258821
 30
0.0
 10
43.225442492954805
 20
-10.695064733565177
 30
0.0
 10
44.4999388254482
 20
-11.80759496367622
 30
0.0
 10
44.87063863550793
 20
-11.989345594697198
 30
0.0
 10
45.61614222354737
 20
-11.76319955364806
 30
0.0
 10
46.303202265213294
 20
-11.395958310310808
 30
0.0
 10
46.43680951101123
 20
-11.005316857153142
 30
0.0
 10
46.55133684032815
 20
-9.317434187863082
 30
0.0
 10
46.35321805005216
 20
-8.309316761771484
 30
0.0
 10
46.19339971653517
 20
-7.983350213286852
 30
0.0
 10
45.41369942606959
 20
-7.090138385197262
 30
0.0
 10
45.30512711316617
 20
-6.17162343412566
 30
0.0
 10
46.91528886565088
 20
-4.56146168164096
 30
0.0
 10
47.83380381672247
 20
-4.670033994544374
 30
0.0
 10
48.72701564481207
 20
-5.449734285009954
 30
0.0
 10
49.0529821932967
 20
-5.609552618526944
 30
0.0
 10
50.06109961938833
 20
-5.807671408802944
 30
0.0
 10
51.74898228867835
 20
-5.693144079486027
 30
0.0
 10
52.13962374183601
 20
-5.559536833688094
 30
0.0
 10
52.506864985173266
 20
-4.872476792022169
 30
0.0
 10
52.7330110262224
 20
-4.126973203982731
 30
0.0
 10
52.551260395201425
 20
-3.7562733939230006
 30
0.0
 10
51.438730165090355
 20
-2.481777061429566
 30
0.0
 10
50.585792356784026
 20
-1.9090215332924982
 30
0.0
 10
50.242290572522776
 20
-1.7915370038068392
 30
0.0
 10
49.05936306916326
 20
-1.71127222580999
 30
0.0
 10
48.33310269993619
 20
-1.1385562939891432
 30
0.0
 10
48.3331026999362
 20
1.1385562939891563
 30
0.0
 10
49.059363069163254
 20
1.7112722258099953
 30
0.0
 10
50.242290572522776
 20
1.7915370038068519
 30
0.0
 10
50.585792356784026
 20
1.9090215332925085
 30
0.0
 10
51.438730165090384
 20
2.481777061429594
 30
0.0
 10
52.551260395201425
 20
3.7562733939229904
 30
0.0
 10
52.73301102622241
 20
4.126973203982723
 30
0.0
 10
52.50686498517327
 20
4.8724767920221606
 30
0.0
 10
52.13962374183602
 20
5.559536833688087
 30
0.0
 10
51.748982288678356
 20
5.693144079486021
 30
0.0
 10
50.061099619388294
 20
5.807671408802942
 30
0.0
 10
49.05298219329669
 20
5.609552618526951
 30
0.0
 10
48.72701564481206
 20
5.449734285009959
 30
0.0
 10
47.83380381672247
 20
4.670033994544381
 30
0.0
 10
46.91528886565087
 20
4.561461681640965
 30
0.0
 10
45.30512711316617
 20
6.171623434125674
 30
0.0
 10
45.413699426069584
 20
7.090138385197262
 30
0.0
 10
46.19339971653516
 20
7.9833502132868635
 30
0.0
 10
46.353218050052156
 20
8.309316761771491
 30
0.0
 10
46.551336840328155
 20
9.317434187863121
 30
0.0
 10
46.436809511011234
 20
11.005316857153137
 30
0.0
 10
46.3032022652133
 20
11.395958310310805
 30
0.0
 10
45.61614222354738
 20
11.763199553648057
 30
0.0
 10
44.87063863550794
 20
11.989345594697195
 30
0.0
 10
44.49993882544821
 20
11.80759496367622
 30
0.0
 10
43.22544249295478
 20
10.695064733565147
 30
0.0
 10
42.652686964817704
 20
9.842126925258821
 30
0.0
 10
42.535202435332046
 20
9.498625140997564
 30
0.0
 10
42.4549376573352
 20
8.315697637638053
 30
0.0
 10
41.88222172551435
 20
7.589437268410981
 30
0.0
 10
39.605109137536054
 20
7.589437268410988
 30
0.0
 10
39.032393205715216
 20
8.31569763763805
 30
0.0
 10
38.95212842771836
 20
9.498625140997571
 30
0.0
 10
38.8346438982327
 20
9.842126925258821
 30
0.0
 10
38.26188837009562
 20
10.695064733565177
 30
0.0
 10
36.98739203760222
 20
11.80759496367622
 30
0.0
 10
36.61669222754249
 20
11.989345594697198
 30
0.0
 10
35.87118863950304
 20
11.763199553648056
 30
0.0
 10
35.184128597837116
 20
11.395958310310805
 30
0.0
 10
35.050521352039176
 20
11.005316857153138
 30
0.0
 10
34.93599402272226
 20
9.317434187863077
 30
0.0
 10
35.134112812998254
 20
8.309316761771479
 30
0.0
 10
35.29393114651524
 20
7.983350213286847
 30
0.0
 10
36.07363143698082
 20
7.090138385197258
 30
0.0
 10
36.18220374988424
 20
6.171623434125657
 30
0.0
 10
34.57204199739953
 20
4.561461681640955
 30
0.0
 10
33.653527046327945
 20
4.67003399454437
 30
0.0
 10
32.76031521823834
 20
5.4497342850099475
 30
0.0
 10
32.43434866975371
 20
5.609552618526937
 30
0.0
 10
31.42623124366208
 20
5.807671408802936
 30
0.0
 10
29.73834857437207
 20
5.693144079486018
 30
0.0
 10
29.3477071212144
 20
5.5595368336880835
 30
0.0
  0
LWPOLYLINE
  8
OpenJsCad
  90
31
  70
1
 10
38.761243602288296
 20
2.8844416601770555
 30
0.0
 10
39.40427341824739
 20
3.233578363789504
 30
0.0
 10
40.10584109230269
 20
3.4413921764738413
 30
0.0
 10
40.83528475060277
 20
3.4988006374144507
 30
0.0
 10
41.560724205020875
 20
3.4032947213918683
 30
0.0
 10
42.25045427035424
 20
3.159048495224513
 30
0.0
 10
42.87433043305573
 20
2.7767366910193236
 30
0.0
 10
43.40508631112532
 20
2.2730681691556422
 30
0.0
 10
43.819525325842086
 20
1.670055660908628
 30
0.0
 10
44.09953450356389
 20
0.9940537064637264
 30
0.0
 10
44.23287609959116
 20
0.2746068350474564
 30
0.0
 10
44.21372244633355
 20
-0.4568416727701825
 30
0.0
 10
44.042910650347835
 20
-1.1683240073182
 30
0.0
 10
43.72790600676453
 20
-1.828744976505822
 30
0.0
 10
43.282475730068214
 20
-2.4092410149281394
 30
0.0
 10
42.72608726076212
 20
-2.884441660177056
 30
0.0
 10
42.08305744480302
 20
-3.233578363789505
 30
0.0
 10
41.38148977074773
 20
-3.4413921764738413
 30
0.0
 10
40.65204611244765
 20
-3.4988006374144507
 30
0.0
 10
39.92660665802954
 20
-3.4032947213918683
 30
0.0
 10
39.23687659269618
 20
-3.1590484952245115
 30
0.0
 10
38.613000429994685
 20
-2.7767366910193223
 30
0.0
 10
38.0822445519251
 20
-2.2730681691556427
 30
0.0
 10
37.66780553720833
 20
-1.670055660908629
 30
0.0
 10
37.38779635948653
 20
-0.9940537064637289
 30
0.0
 10
37.25445476345926
 20
-0.27460683504745687
 30
0.0
 10
37.27360841671687
 20
0.4568416727701812
 30
0.0
 10
37.44442021270258
 20
1.1683240073181986
 30
0.0
 10
37.75942485628589
 20
1.828744976505822
 30
0.0
 10
38.2048551329822
 20
2.4092410149281394
 30
0.0
 10
38.761243602288296
 20
2.8844416601770555
 30
0.0
  0
ENDSEC
  0
EOF
